<svg width="155" height="30" viewBox="0 0 155 30" fill="none" xmlns="http://www.w3.org/2000/svg">
<path d="M18.0056 11.5998H23.7189V17.3131H18.0056V11.5998Z" fill="#F391A0"/>
<path d="M5.88644 11.5998H11.946V17.3131H5.88644V11.5998Z" fill="#6C2CA2"/>
<path d="M5.88644 0H23.7189V5.88644H5.88644V0Z" fill="#6C2CA2"/>
<path d="M5.88644 23.1995H23.7189V28.9128H5.88644V23.1995Z" fill="#6C2CA2"/>
<path d="M0 2.77009C0 1.24021 1.24021 0 2.77009 0H5.88644V28.9128H2.77009C1.24021 28.9128 0 27.6726 0 26.1427V2.77009Z" fill="#6C2CA2"/>
<path d="M45.7198 8.50615C47.4893 8.50615 48.9118 9.0526 49.9874 10.1455C51.0803 11.2211 51.6267 12.7303 51.6267 14.6733V23.1303H47.9837V15.1677C47.9837 14.0401 47.6975 13.1814 47.125 12.5915C46.5525 11.9844 45.7719 11.6808 44.7831 11.6808C43.7942 11.6808 43.0049 11.9844 42.4151 12.5915C41.8426 13.1814 41.5564 14.0401 41.5564 15.1677V23.1303H37.9134V15.1677C37.9134 14.0401 37.6271 13.1814 37.0547 12.5915C36.4822 11.9844 35.7015 11.6808 34.7127 11.6808C33.7066 11.6808 32.9086 11.9844 32.3187 12.5915C31.7463 13.1814 31.46 14.0401 31.46 15.1677V23.1303H27.817V8.71432H31.46V10.4578C31.9284 9.85059 32.5269 9.37353 33.2555 9.02658C34.0015 8.67962 34.8168 8.50615 35.7015 8.50615C36.8291 8.50615 37.8353 8.74902 38.72 9.23475C39.6048 9.70314 40.29 10.3797 40.7757 11.2644C41.2441 10.4317 41.9207 9.76386 42.8054 9.26077C43.7075 8.75769 44.679 8.50615 45.7198 8.50615Z" fill="#6C2CA2"/>
<path d="M58.7267 10.796C59.1951 10.1368 59.837 9.59038 60.6523 9.15669C61.485 8.70565 62.4305 8.48013 63.4887 8.48013C64.7204 8.48013 65.8306 8.78371 66.8194 9.39088C67.8256 9.99805 68.6149 10.8654 69.1874 11.993C69.7772 13.1033 70.0721 14.3957 70.0721 15.8702C70.0721 17.3448 69.7772 18.6545 69.1874 19.7995C68.6149 20.9271 67.8256 21.8032 66.8194 22.4277C65.8306 23.0522 64.7204 23.3644 63.4887 23.3644C62.4305 23.3644 61.4937 23.1476 60.6783 22.7139C59.8804 22.2802 59.2298 21.7338 58.7267 21.0745V29.9999H55.0837V8.71432H58.7267V10.796ZM66.351 15.8702C66.351 15.0029 66.1689 14.2569 65.8046 13.6324C65.4576 12.9905 64.9893 12.5048 64.3994 12.1752C63.827 11.8456 63.2024 11.6808 62.5259 11.6808C61.8667 11.6808 61.2422 11.8543 60.6523 12.2012C60.0799 12.5308 59.6115 13.0165 59.2472 13.6584C58.9002 14.3003 58.7267 15.0549 58.7267 15.9223C58.7267 16.7897 58.9002 17.5443 59.2472 18.1862C59.6115 18.828 60.0799 19.3224 60.6523 19.6694C61.2422 19.999 61.8667 20.1638 62.5259 20.1638C63.2024 20.1638 63.827 19.9903 64.3994 19.6434C64.9893 19.2964 65.4576 18.802 65.8046 18.1601C66.1689 17.5183 66.351 16.755 66.351 15.8702Z" fill="#6C2CA2"/>
<path d="M79.1207 23.3644C77.7329 23.3644 76.4839 23.0609 75.3736 22.4537C74.2634 21.8292 73.3873 20.9531 72.7454 19.8255C72.1209 18.6979 71.8087 17.3968 71.8087 15.9223C71.8087 14.4477 72.1296 13.1467 72.7715 12.0191C73.4307 10.8915 74.3241 10.0241 75.4517 9.4169C76.5793 8.79239 77.837 8.48013 79.2248 8.48013C80.6126 8.48013 81.8703 8.79239 82.9979 9.4169C84.1255 10.0241 85.0102 10.8915 85.6521 12.0191C86.3113 13.1467 86.6409 14.4477 86.6409 15.9223C86.6409 17.3968 86.3027 18.6979 85.6261 19.8255C84.9669 20.9531 84.0648 21.8292 82.9199 22.4537C81.7923 23.0609 80.5259 23.3644 79.1207 23.3644ZM79.1207 20.1898C79.7799 20.1898 80.3958 20.0337 80.9682 19.7214C81.5581 19.3918 82.0265 18.9061 82.3734 18.2642C82.7204 17.6224 82.8938 16.8417 82.8938 15.9223C82.8938 14.5518 82.5295 13.5023 81.8009 12.7737C81.0897 12.0277 80.2136 11.6548 79.1728 11.6548C78.1319 11.6548 77.2558 12.0277 76.5446 12.7737C75.8507 13.5023 75.5037 14.5518 75.5037 15.9223C75.5037 17.2928 75.842 18.351 76.5185 19.0969C77.2125 19.8255 78.0798 20.1898 79.1207 20.1898Z" fill="#6C2CA2"/>
<path d="M109.298 8.71432L105.082 23.1303H101.153L98.5248 13.0599L95.8967 23.1303H91.9414L87.6999 8.71432H91.3949L93.9451 19.6954L96.7033 8.71432H100.555L103.261 19.6694L105.811 8.71432H109.298Z" fill="#6C2CA2"/>
<path d="M126.335 4.96722V23.1303H122.692V15.4019H114.912V23.1303H111.269V4.96722H114.912V12.4354H122.692V4.96722H126.335Z" fill="#F391A0"/>
<path d="M143.322 15.61C143.322 16.1305 143.287 16.5988 143.218 17.0152H132.679C132.766 18.0561 133.13 18.8714 133.772 19.4612C134.414 20.051 135.203 20.3459 136.14 20.3459C137.493 20.3459 138.456 19.7648 139.029 18.6025H142.958C142.541 19.9903 141.743 21.1353 140.564 22.0373C139.384 22.9221 137.936 23.3644 136.218 23.3644C134.83 23.3644 133.581 23.0609 132.471 22.4537C131.378 21.8292 130.52 20.9531 129.895 19.8255C129.288 18.6979 128.984 17.3968 128.984 15.9223C128.984 14.4304 129.288 13.1206 129.895 11.993C130.502 10.8654 131.352 9.99805 132.445 9.39088C133.538 8.78371 134.796 8.48013 136.218 8.48013C137.589 8.48013 138.812 8.77504 139.887 9.36486C140.98 9.95468 141.822 10.796 142.411 11.8889C143.019 12.9645 143.322 14.2049 143.322 15.61ZM139.549 14.5692C139.532 13.6324 139.193 12.8864 138.534 12.3313C137.875 11.7588 137.068 11.4726 136.114 11.4726C135.212 11.4726 134.449 11.7502 133.824 12.3053C133.217 12.8431 132.844 13.5977 132.705 14.5692H139.549Z" fill="#6C2CA2"/>
<path d="M149.624 10.9522C150.093 10.1889 150.7 9.59038 151.446 9.15669C152.209 8.72299 153.076 8.50615 154.048 8.50615V12.3313H153.085C151.94 12.3313 151.073 12.6002 150.483 13.138C149.91 13.6758 149.624 14.6125 149.624 15.9483V23.1303H145.981V8.71432H149.624V10.9522Z" fill="#6C2CA2"/>
</svg>
